<mxfile host="app.diagrams.net" modified="2021-10-22T02:00:50.465Z" agent="5.0 (X11; Linux x86_64) AppleWebKit/537.36 (KHTML, like Gecko) Chrome/94.0.4606.81 Safari/537.36" etag="CQI2M1p-EEaf8Il4b_o3" version="15.5.6" type="github">
  <diagram id="L4nC6AmduJt81Fy9fp9p" name="Page-1">
    <mxGraphModel dx="1350" dy="805" grid="1" gridSize="10" guides="1" tooltips="1" connect="1" arrows="1" fold="1" page="1" pageScale="1" pageWidth="827" pageHeight="1169" math="0" shadow="0">
      <root>
        <mxCell id="0" />
        <mxCell id="1" parent="0" />
        <mxCell id="nYpAfD2yCgHc4-Iwsmkv-1" value="客户端" style="rounded=1;whiteSpace=wrap;html=1;" vertex="1" parent="1">
          <mxGeometry x="370" y="120" width="120" height="60" as="geometry" />
        </mxCell>
        <mxCell id="nYpAfD2yCgHc4-Iwsmkv-2" value="存储服务器" style="shape=cylinder3;whiteSpace=wrap;html=1;boundedLbl=1;backgroundOutline=1;size=15;" vertex="1" parent="1">
          <mxGeometry x="100" y="400" width="180" height="130" as="geometry" />
        </mxCell>
        <mxCell id="nYpAfD2yCgHc4-Iwsmkv-3" value="元数据服务器" style="shape=cylinder3;whiteSpace=wrap;html=1;boundedLbl=1;backgroundOutline=1;size=15;" vertex="1" parent="1">
          <mxGeometry x="500" y="410" width="140" height="110" as="geometry" />
        </mxCell>
        <mxCell id="nYpAfD2yCgHc4-Iwsmkv-4" value="对象存储设备" style="text;html=1;align=center;verticalAlign=middle;resizable=0;points=[];autosize=1;strokeColor=none;fillColor=none;" vertex="1" parent="1">
          <mxGeometry x="110" y="670" width="90" height="20" as="geometry" />
        </mxCell>
        <mxCell id="nYpAfD2yCgHc4-Iwsmkv-6" value="" style="shape=singleArrow;whiteSpace=wrap;html=1;arrowWidth=0.4;arrowSize=0.4;rotation=-75;" vertex="1" parent="1">
          <mxGeometry x="124.51" y="600" width="100" height="10" as="geometry" />
        </mxCell>
        <mxCell id="nYpAfD2yCgHc4-Iwsmkv-7" value="" style="endArrow=none;html=1;rounded=0;" edge="1" parent="1" source="nYpAfD2yCgHc4-Iwsmkv-2" target="nYpAfD2yCgHc4-Iwsmkv-1">
          <mxGeometry width="50" height="50" relative="1" as="geometry">
            <mxPoint x="310" y="310" as="sourcePoint" />
            <mxPoint x="360" y="260" as="targetPoint" />
          </mxGeometry>
        </mxCell>
        <mxCell id="nYpAfD2yCgHc4-Iwsmkv-8" value="并行的文件访问&lt;br&gt;" style="text;html=1;align=center;verticalAlign=middle;resizable=0;points=[];autosize=1;strokeColor=none;fillColor=none;" vertex="1" parent="1">
          <mxGeometry x="180" y="260" width="100" height="20" as="geometry" />
        </mxCell>
        <mxCell id="nYpAfD2yCgHc4-Iwsmkv-9" value="" style="endArrow=none;html=1;rounded=0;" edge="1" parent="1" source="nYpAfD2yCgHc4-Iwsmkv-3" target="nYpAfD2yCgHc4-Iwsmkv-1">
          <mxGeometry width="50" height="50" relative="1" as="geometry">
            <mxPoint x="390" y="430" as="sourcePoint" />
            <mxPoint x="440" y="380" as="targetPoint" />
          </mxGeometry>
        </mxCell>
        <mxCell id="nYpAfD2yCgHc4-Iwsmkv-10" value="目录操作&lt;br&gt;并发的元数据操作" style="text;html=1;align=center;verticalAlign=middle;resizable=0;points=[];autosize=1;strokeColor=none;fillColor=none;" vertex="1" parent="1">
          <mxGeometry x="465" y="265" width="110" height="30" as="geometry" />
        </mxCell>
        <mxCell id="nYpAfD2yCgHc4-Iwsmkv-11" value="" style="endArrow=none;html=1;rounded=0;" edge="1" parent="1" source="nYpAfD2yCgHc4-Iwsmkv-2" target="nYpAfD2yCgHc4-Iwsmkv-3">
          <mxGeometry width="50" height="50" relative="1" as="geometry">
            <mxPoint x="400" y="500" as="sourcePoint" />
            <mxPoint x="450" y="450" as="targetPoint" />
          </mxGeometry>
        </mxCell>
        <mxCell id="nYpAfD2yCgHc4-Iwsmkv-12" value="数据恢复&lt;br&gt;文件状态查询&lt;br&gt;文件添加" style="text;html=1;align=center;verticalAlign=middle;resizable=0;points=[];autosize=1;strokeColor=none;fillColor=none;" vertex="1" parent="1">
          <mxGeometry x="305" y="465" width="90" height="50" as="geometry" />
        </mxCell>
      </root>
    </mxGraphModel>
  </diagram>
</mxfile>
